<svg xmlns="http://www.w3.org/2000/svg" xmlns:lucid="lucid" width="120" height="120"><g transform="translate(-1084.063788022555 -4160)" lucid:page-tab-id="0_0"><path d="M-500-1000h4000v5500H-500z" fill="#fff"/><path d="M1084.06 4160h120v120h-120v-120z" stroke="#000" stroke-opacity="0" fill="url(#a)"/><path d="M1125.32 4236.93H1161v-33.86h-35.68v33.86zm39.38-33.86h5.62v3.8h-5.62v3.72h5.62v3.8h-5.62v3.7h5.62v3.8h-5.62v5.6h5.62v3.73h-5.62v3.8h5.62v3.7h-5.86c-.5 1.17-1.57 1.9-2.9 1.9h-.57v5.62h-3.8v-5.6h-3.72v5.6h-3.8v-5.6h-3.72v5.6h-3.8v-5.6h-3.7v5.6h-3.8v-5.6h-5.62v5.6h-3.72v-5.6h-.66c-1.32 0-2.4-.75-2.9-1.9h-3.95v-3.72h3.73v-3.8h-3.72v-3.72h3.73v-5.6h-3.72v-3.8h3.73v-3.7h-3.72v-3.8h3.73v-3.73h-3.72v-3.8h3.73v-.57c0-1.74 1.4-3.14 3.13-3.14h.66v-5.6h3.72v5.6h5.6v-5.6h3.8v5.6h3.72v-5.6h3.8v5.6h3.72v-5.6h3.8v5.6h3.7v-5.6h3.8v5.6h.6c1.72 0 3.12 1.4 3.12 3.14v.57zm-20.64 54.5h-37.56V4220h7.5v-3.72h-7.75c-1.9 0-3.47 1.5-3.47 3.4v38.13c0 1.9 1.57 3.48 3.47 3.48h38.14c1.9 0 3.38-1.57 3.38-3.47v-7.75h-3.72v7.5zm41.28-75.38v38.13c0 1.9-1.56 3.4-3.46 3.4h-7.76V4220h7.5v-37.56h-37.56v7.5h-3.7v-7.75c0-1.9 1.48-3.48 3.37-3.48h38.15c1.9 0 3.46 1.57 3.46 3.47z" stroke="#000" stroke-opacity="0" fill="#fff"/><defs><linearGradient gradientUnits="userSpaceOnUse" id="a" x1="1084.06" y1="4280" x2="1204.06" y2="4160"><stop offset="0%" stop-color="#c8511b"/><stop offset="100%" stop-color="#f90"/></linearGradient></defs></g></svg>