<svg xmlns="http://www.w3.org/2000/svg" xmlns:lucid="lucid" width="120" height="120"><g transform="translate(-2856.8387880225555 -4261.400000000001)" lucid:page-tab-id="0_0"><path d="M-500-1000h4000v6000H-500z" fill="#fff"/><path d="M2856.84 4261.4h120v120h-120v-120z" stroke="#000" stroke-opacity="0" fill="url(#a)"/><path d="M2929.97 4308.27v7.52h1.9c1 0 1.9.8 1.9 1.9v22.44c0 1.07-.9 1.9-1.9 1.9h-30.06c-.98 0-1.9-.83-1.9-1.9v-22.45c0-1.1.92-1.9 1.9-1.9h1.9v-7.53c0-5.7 6.53-11.23 13.14-11.23 3.05 0 6.27 1.16 8.9 3.3 2.66 2.32 4.23 5.13 4.23 7.93zm0 11.23h-26.26v18.82h26.27v-3.8h-3.72v-3.7h3.72v-3.8h-3.72v-3.72h3.72zm-22.54-3.7h18.82v-7.53c0-1.65-1.07-3.47-2.9-5.03-1.9-1.57-4.36-2.48-6.5-2.48-4.47 0-9.42 3.96-9.42 7.5zm47.55 3.7h3.14v3.8h-3.14c-.33 7.43-2.8 14.45-7.18 20.56l-3.06-2.23c3.97-5.37 6.1-11.73 6.44-18.33h-4.3v-3.8h4.3c-.33-6.6-2.56-12.88-6.44-18.24l3.06-2.15c4.37 6.04 6.77 13.05 7.18 20.4zm-69.1 24.36c-4.38-6.1-6.85-13.13-7.18-20.56h-3.14v-3.8h3.14c.4-7.35 2.8-14.36 7.18-20.4l3.05 2.15c-3.88 5.37-6.1 11.65-6.44 18.25h4.3v3.8h-4.3c.32 6.6 2.47 12.96 6.43 18.33zm10.8-50.36l-2.2-3.06c6-4.3 13.03-6.77 20.46-7.1v-3.22h3.8v3.22c7.43.33 14.45 2.8 20.47 7.1l-2.22 3.06c-5.36-3.9-11.64-6.03-18.24-6.44v4.3h-3.8v-4.3c-6.6.4-12.88 2.55-18.25 6.43zm40.3 55.9l2.23 3.04c-6 4.38-13.03 6.77-20.46 7.2v3.04h-3.8v-3.06c-7.43-.4-14.45-2.8-20.47-7.18l2.22-3.05c5.36 3.87 11.64 6.1 18.24 6.43v-4.38h3.8v4.38c6.6-.33 12.88-2.56 18.24-6.44zm-36.57-47.07l-2.63 2.64-21.88-21.88 2.63-2.65zm37.66 37.65l19.73 19.73-2.65 2.65-19.74-19.73zm-26.42-13.63c0-2.9 2.3-5.2 5.2-5.2 2.9 0 5.2 2.3 5.2 5.2 0 2.23-1.4 4.05-3.3 4.8v5.28h-3.8v-5.3c-1.9-.73-3.3-2.55-3.3-4.78zm-19.24 16.93l2.64 2.64-11.55 11.56-2.66-2.64zm48.88-43.6l-2.64-2.64 11.55-11.55 2.64 2.63zm-25.85 26.67c0 .83.58 1.4 1.4 1.4.83 0 1.4-.57 1.4-1.4 0-.82-.57-1.4-1.4-1.4-.82 0-1.4.58-1.4 1.4z" stroke="#000" stroke-opacity="0" fill="#fff"/><defs><linearGradient gradientUnits="userSpaceOnUse" id="a" x1="2856.84" y1="4381.4" x2="2976.84" y2="4261.4"><stop offset="0%" stop-color="#bd0816"/><stop offset="100%" stop-color="#ff5252"/></linearGradient></defs></g></svg>