<svg xmlns="http://www.w3.org/2000/svg" xmlns:lucid="lucid" width="120" height="120"><g transform="translate(-1364.063788022555 -4160)" lucid:page-tab-id="0_0"><path d="M-500-1000h4000v5500H-500z" fill="#fff"/><path d="M1364.06 4160h120v120h-120v-120z" stroke="#000" stroke-opacity="0" fill="url(#a)"/><path d="M1406.88 4217.1c-2.58-1.15-4.27-3.8-4.27-6.68v-22.3c0-.8.5-1.47 1.22-1.8l20.56-7.52c.4-.08.9-.08 1.3 0l20.55 7.52c.73.33 1.2 1 1.2 1.8v22.3c0 2.9-1.68 5.53-4.26 6.7-3.47 1.56-9.52 3.46-18.15 3.46-8.63 0-14.67-1.9-18.14-3.47zm43.3 16.27c.65.25 1.05.9 1.05 1.66v11.22c0 .75-.4 1.4-1.05 1.74l-7.5 3.7c-.24.17-.56.17-.8.17-.33 0-.65 0-.9-.17l-6.6-3.3v7.27c0 .66-.4 1.32-1.05 1.65l-7.5 3.8c-.24.08-.48.16-.8.16-.33 0-.57-.08-.8-.16l-7.5-3.8c-.66-.33-1.06-1-1.06-1.65v-7.27l-6.6 3.3c-.25.17-.58.17-.9.17-.24 0-.56 0-.8-.17l-7.5-3.7c-.65-.34-1.05-1-1.05-1.75v-11.22c0-.75.4-1.4 1.04-1.65l7.5-3.8c.57-.25 1.13-.25 1.7 0l7.42 3.8c.64.24 1.04.9 1.04 1.65v7.26l6.7-3.3c.48-.34 1.13-.34 1.6 0l6.7 3.3v-7.27c0-.75.4-1.4 1.05-1.65l7.42-3.8c.56-.25 1.12-.25 1.68 0zm15.16-20.72c0 9.58-20.8 14.78-40.32 14.78-19.5 0-40.32-5.2-40.32-14.78 0-4.62 5-8.67 14.2-11.4l1.04 3.64c-7.1 2.06-11.53 5.1-11.53 7.75 0 5.2 15.66 10.98 36.62 10.98 20.97 0 36.6-5.78 36.6-10.98 0-2.64-4.42-5.7-11.52-7.76l1.05-3.64c9.2 2.72 14.2 6.77 14.2 11.4zm-23.7 1.08c1.3-.58 2.1-1.82 2.1-3.3v-19.66l-16.86 6.1v19.9c7-.24 11.85-1.72 14.76-3.05zm-35.33-3.3c.02 1.48.82 2.72 2.1 3.3 2.9 1.32 7.75 2.8 14.77 3.05v-19.9l-16.86-6.1zm18.72-27.83l-15.08 5.53 15.08 5.45 15.08-5.45zm-5.64 64.8v7.1l3.8 1.83v-7.02zm7.5 8.93l3.8-1.82v-7.1l-3.8 1.9zm-24.27-18.25v7.02l3.72 1.9v-7.1zm7.5 8.92l3.72-1.9v-7.02l-3.7 1.82zm26.13-8.92v7.02l3.7 1.9v-7.1zm7.5 8.92l3.7-1.9v-7.02l-3.7 1.82zm-35.56-13.63l-3.3 1.66 3.3 1.65 3.3-1.65zm33.7 0l-3.3 1.66 3.3 1.65 3.3-1.65zm-16.85 9.33l-3.3 1.65 3.3 1.66 3.3-1.65z" stroke="#000" stroke-opacity="0" fill="#fff"/><defs><linearGradient gradientUnits="userSpaceOnUse" id="a" x1="1364.06" y1="4280" x2="1484.06" y2="4160"><stop offset="0%" stop-color="#c8511b"/><stop offset="100%" stop-color="#f90"/></linearGradient></defs></g></svg>