<svg xmlns="http://www.w3.org/2000/svg" xmlns:lucid="lucid" width="120" height="120"><g transform="translate(-2088.613788022555 -4173)" lucid:page-tab-id="0_0"><path d="M-500-1000h4000v5500H-500z" fill="#fff"/><path d="M2088.6 4173h120v120h-120v-120z" stroke="#000" stroke-opacity="0" fill="url(#a)"/><path d="M2179.66 4193.64c5.6 0 10.23 4.6 10.23 10.24v15.16c0 5.65-4.63 10.24-10.24 10.24h-2.9v43.15c0 1.04-.82 1.85-1.9 1.85h-54.4c-1 0-1.9-.8-1.9-1.85v-43.15h-1c-5.6 0-10.23-4.6-10.23-10.24v-15.16c0-5.64 4.63-10.24 10.24-10.24zm-57.3 76.85h50.6v-41.22h-50.6zm57.3-45c3.3 0 5.94-2.43 6.35-5.57h-43v-3.8h43.18v-12.25c0-3.55-2.97-6.45-6.52-6.45h-62.1c-3.54 0-6.5 2.9-6.5 6.45v12.26h16.9v3.8h-16.75c.43 3.13 3.07 5.55 6.37 5.55zm-35.34 37.73l-3.47-1.37 11.23-27.26 3.47 1.46zm12.47-8.3l7.75-6.78-7.76-6.7 2.46-2.9 9.33 8.15c.4.32.65.9.65 1.37 0 .57-.24 1.05-.66 1.45l-9.34 8.23zm-29.65-6.7c0-.56.25-1.04.66-1.37l9.34-8.22 2.47 2.74-7.66 6.85 7.6 6.62-2.4 2.82-9.33-7.98c-.4-.42-.65-.9-.65-1.47zm4.54-28.3v-3.8h7.5v3.8z" stroke="#000" stroke-opacity="0" fill="#fff"/><defs><linearGradient gradientUnits="userSpaceOnUse" id="a" x1="2088.61" y1="4293" x2="2208.61" y2="4173"><stop offset="0%" stop-color="#2e27ad"/><stop offset="100%" stop-color="#527fff"/></linearGradient></defs></g></svg>