<svg xmlns="http://www.w3.org/2000/svg" xmlns:lucid="lucid" width="120" height="120"><g transform="translate(-1504.063788022555 -4160)" lucid:page-tab-id="0_0"><path d="M-500-1000h4000v5500H-500z" fill="#fff"/><path d="M1504.06 4160h120v120h-120v-120z" stroke="#000" stroke-opacity="0" fill="url(#a)"/><path d="M1554.7 4236.7v19h28.14v3.78h-52.5v-35.92c-3.14-.93-5.64-3.85-5.64-7.23 0-3.4 2.5-6.3 5.65-7.23v-26.54h3.7v26.54c3.15.92 5.65 3.84 5.65 7.23 0 .3-.08.54-.08.84l9.12 6.08c.72-.46 1.45-.77 2.25-1v-39.7h3.7v39.7c.57.15 1.05.4 1.53.62l11.7-16.62c-1.2-1.38-1.94-3.07-1.94-4.92 0-3.4 2.4-6.3 5.56-7.23v-11.54h3.8v11.54c1.68.46 3.13 1.54 4.18 2.92l7.18-4.3c.48-2.93 2.74-5.3 5.48-6.08v-4.08h3.8v4.08c3.13.84 5.63 3.84 5.63 7.15 0 3.38-2.5 6.38-5.64 7.22v17.15h-3.8v-17.15c-2.18-.62-4.03-2.23-5-4.3l-6.3 3.84c0 .23.1.54.1.77 0 3.3-2.5 6.3-5.65 7.23v5.92h-3.8v-5.92c-.16-.08-.32-.16-.56-.23l-11.94 17.07c.8 1.24 1.3 2.62 1.3 4.08 0 3.3-2.5 6.3-5.66 7.23zm49.03 14.16c2.02 1.85 2.18 4.93.32 7-.96 1.08-2.34 1.62-3.63 1.62-1.2 0-2.4-.38-3.3-1.3l-8.8-7.85c-2.5 1.53-5.47 2.46-8.62 2.46-9.27 0-16.85-7.55-16.85-16.86 0-9.23 7.58-16.77 16.85-16.77 9.27 0 16.77 7.54 16.77 16.77 0 2.54-.56 4.85-1.53 7zm-37.1-14.92c0 7.23 5.8 13.08 13.07 13.08 7.18 0 13.06-5.85 13.06-13.08 0-7.15-5.88-13-13.06-13-7.26 0-13.06 5.85-13.06 13zm-32.57-12.38v32.15H1551v-19c-3.15-.9-5.65-3.9-5.65-7.22 0-1.23.32-2.38.88-3.38l-8.06-5.4c-.97 1.4-2.42 2.4-4.1 2.86zm45.64 2.15c5.64 0 10.24 4.63 10.24 10.24 0 5.7-4.6 10.3-10.24 10.3-5.64 0-10.24-4.6-10.24-10.3 0-5.6 4.6-10.23 10.24-10.23zm0 16.78c3.55 0 6.45-2.92 6.45-6.54 0-3.54-2.9-6.46-6.45-6.46-3.63 0-6.53 2.92-6.53 6.46 0 3.62 2.9 6.54 6.53 6.54zm14.35-52.38c-1.93 0-3.7 1.77-3.7 3.7 0 2 1.77 3.76 3.7 3.76 2.02 0 3.8-1.77 3.8-3.77 0-1.93-1.78-3.7-3.8-3.7zm-20.56 7.46c-2.03 0-3.8 1.77-3.8 3.77 0 1.92 1.77 3.77 3.8 3.77 1.93 0 3.7-1.85 3.7-3.77 0-2-1.77-3.77-3.7-3.77zm-45 18.77c0 2 1.77 3.77 3.7 3.77 1.94 0 3.8-1.77 3.8-3.77s-1.86-3.77-3.8-3.77c-1.93 0-3.7 1.77-3.7 3.77zm24.35 9.38c-1.94 0-3.8 1.78-3.8 3.78 0 1.92 1.86 3.77 3.8 3.77 1.93 0 3.7-1.85 3.7-3.77 0-2-1.77-3.77-3.7-3.77zm48.46 29.63c.4-.47.4-1.23-.07-1.7l-8.3-7.46c-.5.7-.97 1.3-1.54 1.85l8.22 7.38c.48.47 1.2.4 1.7-.07z" stroke="#000" stroke-opacity="0" fill="#fff"/><defs><linearGradient gradientUnits="userSpaceOnUse" id="a" x1="1504.06" y1="4280" x2="1624.06" y2="4160"><stop offset="0%" stop-color="#1b660f"/><stop offset="100%" stop-color="#6cae3e"/></linearGradient></defs></g></svg>