<svg xmlns="http://www.w3.org/2000/svg" xmlns:lucid="lucid" width="120" height="120"><g transform="translate(-1644.063788022555 -4160)" lucid:page-tab-id="0_0"><path d="M-500-1000h4000v5500H-500z" fill="#fff"/><path d="M1644.06 4160h120v120h-120v-120z" stroke="#000" stroke-opacity="0" fill="url(#a)"/><path d="M1722.8 4233.25h-31.86v18.7c0 1.07-.83 1.9-1.9 1.9h-11.48c-.9 3.24-3.8 5.63-7.26 5.63-4.13 0-7.52-3.38-7.52-7.54 0-4.07 3.4-7.46 7.52-7.46 3.46 0 6.35 2.4 7.26 5.62h9.58v-16.85h-9.58c-.9 3.15-3.8 5.6-7.26 5.6-4.13 0-7.52-3.37-7.52-7.52 0-4.16 3.4-7.46 7.52-7.46 3.46 0 6.35 2.38 7.26 5.6h9.58v-16.9h-9.58c-.9 3.22-3.8 5.6-7.26 5.6-4.13 0-7.52-3.3-7.52-7.46 0-4.14 3.4-7.52 7.52-7.52 3.46 0 6.35 2.46 7.26 5.6h9.58v-16.84h-9.66c-.83 3.16-3.8 5.62-7.18 5.62-4.05 0-7.52-3.46-7.52-7.46 0-4.08 3.47-7.54 7.52-7.54 3.38 0 6.35 2.46 7.18 5.6l11.56.02c1.07 0 1.9.84 1.9 1.92v39.38h31.87zm22.54-30.15v48.84c0 1.08-.82 1.93-1.9 1.93h-39.38c-1.07 0-1.9-.85-1.9-1.93v-15h3.8v13.16h35.67v-45h-11.3c-1 0-1.9-.85-1.9-1.93v-11.23h-22.47v33.77h-3.8v-35.6c0-1.08.83-1.93 1.9-1.93h26.42c.17 0 .33.08.42.16.08 0 .16 0 .24.08.17.08.33.16.5.3l13.13 13.17c.16.15.33.38.4.53 0 .08 0 .16.1.16 0 .23.07.38.07.54zm-35.66 9.46v-3.77h18.74v3.76zm-39.38 1.92c2.06 0 3.7-1.7 3.7-3.77 0-2.06-1.64-3.76-3.7-3.76-2.07 0-3.8 1.7-3.8 3.77 0 2.1 1.73 3.78 3.8 3.78zm0 41.23c2.06 0 3.7-1.68 3.7-3.76 0-2-1.64-3.7-3.7-3.7-2.07 0-3.8 1.7-3.8 3.7 0 2.08 1.73 3.77 3.8 3.77zm0-20.6c2.06 0 3.7-1.7 3.7-3.77 0-2.08-1.64-3.7-3.7-3.7-2.07 0-3.8 1.62-3.8 3.7 0 2.07 1.73 3.77 3.8 3.77zm0-41.3c1.98 0 3.7-1.78 3.7-3.7 0-2-1.72-3.77-3.7-3.77-1.98 0-3.8 1.77-3.8 3.77 0 1.92 1.82 3.7 3.8 3.7zm39.38 26.3v-3.77h11.3v3.77zm18.74 13.15v-3.77h11.3v3.77zm3.8-20.7v-3.76h7.5v3.76zm0 7.55v-3.77h7.5v3.77zm0-18.77h6.68l-6.68-6.77z" stroke="#000" stroke-opacity="0" fill="#fff"/><defs><linearGradient gradientUnits="userSpaceOnUse" id="a" x1="1644.06" y1="4280" x2="1764.06" y2="4160"><stop offset="0%" stop-color="#1b660f"/><stop offset="100%" stop-color="#6cae3e"/></linearGradient></defs></g></svg>