<svg xmlns="http://www.w3.org/2000/svg" xmlns:lucid="lucid" width="120" height="120"><g transform="translate(-2524.7887880225553 -4209.8)" lucid:page-tab-id="0_0"><path d="M-500-1000h4000v6000H-500z" fill="#fff"/><path d="M2524.8 4209.8h120v120h-120v-120z" stroke="#000" stroke-opacity="0" fill="url(#a)"/><path d="M2626.07 4241.66v58.2c0 1-.83 1.86-1.9 1.86h-78.76c-1.07 0-1.9-.87-1.9-1.86v-58.2c0-1 .83-1.86 1.9-1.86h78.77c1.07 0 1.9.87 1.9 1.86zm-78.85 56.28h75.13v-54.36h-75.13zm4.38-4.27c-.4-.37-.58-.87-.58-1.36v-22.47c0-1.05.83-1.86 1.9-1.86h1.82v-9.4c0-5.83 7.26-9.36 13.12-9.36h.1c2.88 0 6.76.88 9.07 2.43 2.56 1.8 4.04 4.2 4.04 6.93v9.4h1.82c.5 0 .98.2 1.3.57.42.3.6.8.6 1.3v22.48c0 1.06-.84 1.93-1.9 1.93h-29.98c-.5 0-1-.25-1.32-.56zm3.14-3.22H2581v-3.72h-5.62v-3.77h5.6l.1-3.78h-5.7v-3.7h5.7v-3.8h-26.34zm3.8-22.48h18.74v-9.4c0-1.93-1.5-3.23-2.4-3.85-1.65-1.1-4.8-1.8-6.93-1.8h-.1c-3.95 0-9.32 2.3-9.32 5.64zm31.86 15v-3.8h22.54v3.8zm-17.83-2.8c0 1.86-1.16 3.53-2.8 4.27v4.15h-3.72v-4.16c-1.65-.74-2.8-2.4-2.8-4.27 0-2.6 2.05-4.7 4.6-4.7 2.66 0 4.72 2.1 4.72 4.7zm17.83-14.12v-3.7h16.93v3.7zm0 9.42v-3.78h11.3v3.77zm18.74 0v-3.78h7.52v3.77zm3.8-9.42v-3.7h3.72v3.7zm-45.98 14.12c0 .5.4.93.9.93.58 0 1-.43 1-.93 0-.56-.42-1-1-1-.5 0-.9.44-.9 1z" stroke="#000" stroke-opacity="0" fill="#fff"/><defs><linearGradient gradientUnits="userSpaceOnUse" id="a" x1="2524.79" y1="4329.8" x2="2644.79" y2="4209.8"><stop offset="0%" stop-color="#bd0816"/><stop offset="100%" stop-color="#ff5252"/></linearGradient></defs></g></svg>