<svg xmlns="http://www.w3.org/2000/svg" xmlns:lucid="lucid" width="120" height="120"><g transform="translate(-2996.8387880225555 -4287.200000000001)" lucid:page-tab-id="0_0"><path d="M-500-1000h4000v6000H-500z" fill="#fff"/><path d="M2996.84 4287.2h120v120h-120v-120z" stroke="#000" stroke-opacity="0" fill="url(#a)"/><path d="M3090.6 4318.14v1l-3.24 24.26.16.17c5.68 3.05 8.45 5.53 8.84 7.76.24 1.07-.08 2.06-.7 2.8-.8 1-2.06 1.4-3.88 1.4-1.5 0-3.47-.32-5.84-.9l-3.16 24.52c-1.34 8.42-20.53 9.33-28.74 9.33-8.22 0-27.4-.9-28.74-9.33l-7.82-60.02v-1c0-5.77 15.63-12.2 36.56-12.2 20.92 0 36.56 6.43 36.56 12.2zm-7.82 31.62l3.24-25.43c-6.56 3.96-19.35 5.94-31.98 5.94-12.64 0-25.43-1.98-31.98-5.94l6.95 54.32c.48 2.98 9.24 6.12 25.04 6.12 15.8 0 24.55-3.14 25.03-6.2l3.23-25c-9.3-2.98-21.47-8.6-25.97-10.66-.63.42-1.42.75-2.3.75-2.13 0-3.86-1.82-3.86-3.96 0-2.16 1.74-3.98 3.87-3.98s3.8 1.74 3.95 3.8c4.33 1.98 15.86 7.27 24.78 10.24zm-28.74-23.2c19.58 0 32.3-4.8 32.85-8.26v-.16c-.73-2.15-11.62-8.5-32.86-8.5-21.32 0-32.14 6.43-32.85 8.5v.33c.78 3.38 13.4 8.1 32.84 8.1zm32.37 24.27c3.88 1.08 5.54 1 6.17.9-.4-.57-1.66-1.97-5.76-4.28z" stroke="#000" stroke-opacity="0" fill="#fff"/><defs><linearGradient gradientUnits="userSpaceOnUse" id="a" x1="2996.84" y1="4407.2" x2="3116.84" y2="4287.2"><stop offset="0%" stop-color="#1b660f"/><stop offset="100%" stop-color="#6cae3e"/></linearGradient></defs></g></svg>