<svg xmlns="http://www.w3.org/2000/svg" xmlns:lucid="lucid" width="120" height="120"><g transform="translate(-2457.762110283073 -4415.571194437134)" lucid:page-tab-id="0_0"><path d="M-500-1000h4000v6000H-500z" fill="#fff"/><path d="M2457.76 4415.57h120v120h-120v-120z" stroke="#000" stroke-opacity="0" fill="url(#a)"/><path d="M2538.4 4441.37c12.74 7.1 20.64 20.57 20.64 35.16 0 12.58-5.72 24.2-15.64 31.94-3.55 2.66-7.42 4.75-11.7 6.2-4.1 1.45-8.46 2.18-12.98 2.18-6.6 0-13.22-1.6-19.03-4.76-13.15-7.02-21.3-20.65-21.3-35.57 0-.8 0-1.6.08-2.42.97-16.84 12.5-31.36 28.7-36.2 3.72-1.12 7.6-1.7 11.54-1.7 6.94 0 13.7 1.78 19.68 5.17zm4.5 62.58c7.92-6.94 12.35-16.77 12.35-27.42 0-12.82-6.7-24.68-17.66-31.3-2.18.42-4.2.98-6.86 1.95l-1.2-3.55c1.04-.32 2-.65 2.97-.97-4.34-1.77-9.02-2.66-13.78-2.66-2.1 0-4.2.16-6.3.48 1.46.9 2.84 1.86 4.13 2.83l-2.26 3c-2.1-1.62-4.3-2.9-7.2-4.44-13.3 4.43-22.9 16.3-24.67 30.16 2.9-.57 5.65-.9 8.7-.97l.1 3.7c-3.23.1-5.97.5-9.04 1.14v.63c0 11.94 5.72 22.9 15.23 29.76-1.6-5.1-2.42-9.93-2.42-14.7 0-2.73.42-5.07.98-7.5.08-.55.24-1.12.32-1.68l3.7.72c-.15.57-.23 1.2-.4 1.78-.47 2.26-.88 4.27-.88 6.7 0 5.64 1.3 11.36 3.8 17.65 5.07 2.58 10.48 3.8 16.2 3.8 3.63 0 7.26-.57 10.65-1.62 1.53-2.9 2.58-5.57 3.55-8.7l3.54.96c-.48 1.86-1.05 3.56-1.77 5.17 1.76-.9 3.38-1.86 4.9-3-.4-1.03-.88-2.08-1.36-3.13l3.3-1.7c.5.97.97 1.94 1.37 2.9zm-7.32-18.06c4.2 0 7.5 3.37 7.5 7.5 0 4.18-3.3 7.48-7.5 7.48-4.12 0-7.5-3.3-7.5-7.5 0-4.1 3.38-7.5 7.5-7.5zm-13.07-28.16c-4.18 0-7.57-3.3-7.57-7.5 0-4.1 3.4-7.5 7.58-7.5 4.13 0 7.5 3.4 7.5 7.5 0 4.2-3.38 7.5-7.5 7.5zm-22.57 7.5c4.2 0 7.5 3.4 7.5 7.5 0 4.2-3.3 7.58-7.5 7.58-4.1 0-7.5-3.4-7.5-7.58 0-4.1 3.4-7.5 7.5-7.5zm29.92-7.74c5.32 8.15 8.3 17.02 8.95 26.53l-3.8.24c-.55-8.87-3.3-17.1-8.3-24.67zm-.08 28.22l-2.58 2.75c-5.65-5.33-11.22-8.87-17.6-11.05l1.22-3.55c6.93 2.42 12.98 6.13 18.95 11.85zm-22.42-19.9l-3.14-2.03c2.9-4.45 5.4-7.43 8.56-10.17l2.5 2.82c-2.9 2.5-5.17 5.24-7.9 9.36zm15.16-19.3c-2.08 0-3.78 1.7-3.78 3.72 0 2.1 1.7 3.8 3.8 3.8 2 0 3.7-1.7 3.7-3.8 0-2-1.7-3.7-3.7-3.7zm-22.57 30c2.1 0 3.8-1.68 3.8-3.78 0-2-1.7-3.7-3.8-3.7-2 0-3.7 1.7-3.7 3.7 0 2.1 1.7 3.8 3.7 3.8zm35.65 20.65c2.1 0 3.8-1.7 3.8-3.78 0-2.03-1.7-3.72-3.8-3.72-2.02 0-3.7 1.7-3.7 3.7 0 2.1 1.68 3.8 3.7 3.8z" stroke="#000" stroke-opacity="0" fill="#fff"/><defs><linearGradient gradientUnits="userSpaceOnUse" id="a" x1="2457.76" y1="4535.57" x2="2577.76" y2="4415.57"><stop offset="0%" stop-color="#4d27a8"/><stop offset="100%" stop-color="#a166ff"/></linearGradient></defs></g></svg>