<svg xmlns="http://www.w3.org/2000/svg" xmlns:lucid="lucid" width="120" height="120"><g transform="translate(-1948.613788022555 -4173)" lucid:page-tab-id="0_0"><path d="M-500-1000h4000v5500H-500z" fill="#fff"/><path d="M1948.6 4173h120v120h-120v-120z" stroke="#000" stroke-opacity="0" fill="url(#a)"/><path d="M2008.6 4210.87c6.95 0 18.76 1.4 18.76 6.94v30.9c0 5.02-9.75 7.33-18.75 7.33-8.98 0-18.73-2.3-18.73-7.34v-30.9c0-5.52 11.8-6.93 18.74-6.93zm0 20.97c9.5 0 14.8-2.47 15.04-3.55v-6.1c-4.05 1.88-10.57 2.54-15.03 2.54-4.44 0-10.97-.66-15-2.55v6.1c.24 1.07 5.6 3.54 15 3.54zm0 10.82c9.5 0 14.8-2.56 15.04-3.63v-6.1c-3.63 1.8-9.4 2.7-15.03 2.7-5.52 0-11.3-.9-15-2.7v6.1c.24 1.07 5.6 3.63 15 3.63zm-23.02 16.1l-11.8 11.8H1984v3.72h-14.77c-1.07 0-1.9-.83-1.9-1.9v-15.03h3.72v10.5l11.8-11.82zm64.3-65.14v15.03h-3.7v-10.5l-11.8 11.82-2.73-2.73 11.8-11.8h-10.23v-3.72H2048c1.07 0 1.9.83 1.9 1.9zm-78.83 14.78h-3.72v-14.78c0-1.07.83-1.9 1.9-1.9h15.03v3.72h-10.5l11.82 11.8-2.72 2.73-11.8-11.8zm75.13 49.2h3.7v14.78c0 1.07-.8 1.9-1.9 1.9h-15v-3.72h10.47l-11.8-11.8 2.72-2.73 11.8 11.8zm-37.57-5.36c9.5 0 14.8-2.48 15.04-3.55v-5.05c-3.63 1.9-9.4 2.73-15.03 2.73-5.52 0-11.3-.9-15-2.73v5.04c.24 1.06 5.52 3.54 15 3.54zm36.6-19.65c0-4.55-5.38-9.1-14.38-12.15l1.16-3.55c10.8 3.63 17 9.33 17 15.7 0 6.34-6.2 12.04-17 15.67l-1.16-3.55c9-3.05 14.37-7.6 14.37-12.13zm-73.08 0c0 4.36 5.04 8.74 13.46 11.8l-1.32 3.54c-10.07-3.63-15.93-9.24-15.93-15.35 0-6.12 5.86-11.74 15.93-15.37l1.32 3.55c-8.42 3.06-13.46 7.43-13.46 11.8zm36.5-18c-9.58 0-14.62 2.3-15.03 3.3.4.74 5.44 3.05 15 3.05 9.34 0 14.38-2.15 14.96-3.14-.58-.98-5.62-3.2-14.95-3.2z" stroke="#000" stroke-opacity="0" fill="#fff"/><defs><linearGradient gradientUnits="userSpaceOnUse" id="a" x1="1948.61" y1="4293" x2="2068.61" y2="4173"><stop offset="0%" stop-color="#2e27ad"/><stop offset="100%" stop-color="#527fff"/></linearGradient></defs></g></svg>