<svg xmlns="http://www.w3.org/2000/svg" xmlns:lucid="lucid" width="120" height="120"><g transform="translate(-944.063788022555 -4160)" lucid:page-tab-id="0_0"><path d="M-500-1000h4000v5500H-500z" fill="#fff"/><path d="M944.06 4160h120v120h-120v-120z" stroke="#000" stroke-opacity="0" fill="url(#a)"/><path d="M1038.65 4237.1c.6.32.95.9.95 1.55 0 .66-.3 1.24-.87 1.65l-33.7 20.6c-.36.18-.65.26-1.02.26-.28 0-.64-.08-.94-.25l-33.76-20.6c-.5-.33-.88-1-.88-1.65v-39.32c0-.66.37-1.24.88-1.57l29.96-18.8c.6-.32 1.32-.32 1.9 0 .6.34 1.03.9 1.03 1.66v16.8c0 .67-.38 1.25-.96 1.66l-14.1 8.74v22.26l16.95 10.22 19.64-10.8c.6-.24 1.25-.24 1.83.1zM1004 4257.1l30.05-18.38-9.43-5.44-19.73 10.8c-.6.32-1.25.24-1.84-.1l-18.7-11.2c-.6-.33-.96-1-.96-1.65v-24.32c0-.66.37-1.23.88-1.56l14.1-8.83V4184l-26.23 16.4v37.27zm36.55-59.44c.6.33.95 1 .95 1.65v31.82c0 .66-.36 1.32-.87 1.65-.3.17-.66.25-1.03.25-.3 0-.5-.08-.8-.17l-14.98-7.5c-.66-.33-1.03-1-1.03-1.73v-15.75l-15.94-8.82c-.58-.33-.95-.9-.95-1.65v-16.8c0-.67.38-1.33.96-1.66.6-.33 1.32-.33 1.83 0zm-2.77 30.5v-27.78l-28.14-16.57v12.53l15.93 8.82c.6.33.95 1 .95 1.65v15.67z" stroke="#000" stroke-opacity="0" fill="#fff"/><defs><linearGradient gradientUnits="userSpaceOnUse" id="a" x1="944.06" y1="4280" x2="1064.06" y2="4160"><stop offset="0%" stop-color="#c8511b"/><stop offset="100%" stop-color="#f90"/></linearGradient></defs></g></svg>