<svg xmlns="http://www.w3.org/2000/svg" xmlns:lucid="lucid" width="120" height="120"><g transform="translate(-2381.5637880225554 -4186)" lucid:page-tab-id="0_0"><path d="M-500-1000h4000v6000H-500z" fill="#fff"/><path d="M2381.56 4186h120v120h-120v-120z" stroke="#000" stroke-opacity="0" fill="url(#a)"/><path d="M2482.84 4242.54v20.4c-.08 7.78-4.3 22.42-19.98 22.42-5.36 0-9.74-1.73-13.12-5.12-6.44-6.53-6.28-16.92-6.28-17.4v-20.62c0-.7.4-1.42 1.16-1.73l17.83-7.5c.4-.15 1-.15 1.4 0l17.84 7.8c.73.32 1.14.95 1.14 1.74zm-3.7 1.18l-16.03-6.93-15.92 6.68v19.45c0 .07-.1 9.28 5.28 14.72 2.56 2.6 6.1 3.93 10.4 3.93 15.86 0 16.2-17.95 16.27-18.65zm-16.7-1.34c.42-.16 1-.16 1.4 0l10.34 4.33c.74.32 1.15 1.03 1.15 1.74v16.3c0 4.56-2.72 13.14-12.47 13.14-9.33 0-11.88-8.58-11.88-13.15v-16.3c0-.7.4-1.4 1.15-1.72zm-45.23 14.88h20.65v3.78h-20.64c-9 0-16.42-6.62-16.92-15.04v-1.18c0-9.92 6.86-13.78 11.15-15.2-.08-.4-.08-.78-.08-1.18 0-8.57 5.2-16.76 12.63-19.75 9.33-3.87 19.9-2.14 26.42 4.08 1.9 1.9 3.55 4.33 4.95 7.4 1.82-1.5 3.8-2.28 5.95-2.28 5.1 0 10.8 4.33 11.97 11.33 4.04.55 7.6 3 9.4 6.62l-3.38 1.65c-1.4-2.9-4.3-4.65-7.68-4.65-1 0-1.82-.7-1.9-1.73-.33-6.22-5.12-9.44-8.42-9.44-1.82 0-3.64 1.02-5.12 3-.42.54-1.08.77-1.74.7-.66-.08-1.24-.56-1.48-1.2-1.4-3.76-3.14-6.68-5.2-8.72-5.45-5.2-14.45-6.62-22.38-3.3-6.77 2.75-10.32 10.22-10.32 16.28 0 .7.17 1.66.25 2.37.1.95-.5 1.82-1.4 2.05-3.7.87-9.9 3.63-9.9 11.97v.08c0 .3 0 .55.08.8.33 6.52 6.1 11.56 13.13 11.56zm44.1 16.7v-27.02l-6.6 2.76v15.03c0 .87.32 8.1 6.6 9.22zm10.32-24.26l-6.6-2.76v26.93c6.35-1.34 6.6-8.82 6.6-9.14z" stroke="#000" stroke-opacity="0" fill="#fff"/><defs><linearGradient gradientUnits="userSpaceOnUse" id="a" x1="2381.56" y1="4306" x2="2501.56" y2="4186"><stop offset="0%" stop-color="#4d27a8"/><stop offset="100%" stop-color="#a166ff"/></linearGradient></defs></g></svg>