<svg xmlns="http://www.w3.org/2000/svg" xmlns:lucid="lucid" width="120" height="120"><g transform="translate(-2228.613788022555 -4173)" lucid:page-tab-id="0_0"><path d="M-500-1000h4000v6000H-500z" fill="#fff"/><path d="M2228.6 4173h120v120h-120v-120z" stroke="#000" stroke-opacity="0" fill="url(#a)"/><path d="M2325.52 4232.26c2.06 3.55 4.37 7.6 4.37 13.54 0 10-8.1 17.42-21.72 19.9-10 1.8-18.33 8.17-18.4 8.17-.34.24-.75.4-1.17.4-.4 0-.8-.16-1.14-.4-.1 0-8.42-6.36-18.4-8.18-13.63-2.48-21.73-9.9-21.73-19.9 0-5.95 2.32-10 4.38-13.54 1.83-3.06 3.3-5.7 3.3-9.25 0-7.6-5.85-12.37-5.85-12.46-.4-.24-.66-.74-.74-1.23 0-.5.1-1 .42-1.4.08-.08 9.66-11.72 11.9-14.7.32-.4.8-.74 1.4-.74.5-.08 1.07.17 1.48.58 3.55 3.88 7.84 5.94 11.9 5.94 4.53 0 8.16-1.98 11.63-6.6.74-.9 2.23-.9 2.97 0 3.47 4.62 7.1 6.6 11.64 6.6 4.05 0 8.34-2.06 11.9-5.94.4-.4.98-.66 1.48-.58.57 0 1.07.33 1.4.75 2.23 2.98 11.8 14.62 11.9 14.7.32.4.4.9.4 1.4-.08.5-.33 1-.74 1.24 0 .1-5.86 4.96-5.86 12.47 0 3.56 1.48 6.2 3.3 9.26zm-18 29.72c4.38-.74 18.66-4.2 18.66-16.18 0-4.96-1.9-8.26-3.88-11.64-1.9-3.22-3.88-6.6-3.88-11.15 0-6.84 3.88-11.8 5.94-14.02-2.14-2.65-6.93-8.5-9.5-11.8-4.04 3.62-8.58 5.6-13.12 5.6-5.12 0-9.33-1.98-13.13-6.27-3.78 4.3-8 6.28-13.1 6.28-4.55 0-9.1-1.98-13.14-5.6-2.56 3.3-7.35 9.15-9.5 11.8 2.15 2.22 5.95 7.18 5.95 14.03 0 4.55-1.97 7.94-3.87 11.16-1.98 3.38-3.88 6.68-3.88 11.64 0 11.97 14.28 15.44 18.66 16.18 8.76 1.57 16.2 6.2 18.9 8.1 2.74-1.9 10.17-6.53 18.92-8.1zm6.1-38.97c0 5.87 2.4 9.92 4.47 13.55 1.97 3.47 3.2 5.78 3.2 9.25 0 8.17-11.22 10.8-14.6 11.47-7.1 1.24-13.2 4.2-17.18 6.52-.25.16-.58.24-.9.24-.34 0-.67-.08-.9-.24-3.98-2.32-10.1-5.3-17.1-6.53-3.47-.66-14.7-3.3-14.7-11.47 0-3.47 1.24-5.78 3.22-9.25 2.06-3.63 4.46-7.68 4.46-13.54 0-4.53-1.32-8.9-3.8-12.87-.4-.74-.4-1.57.16-2.23.75-.9 1.5-1.8 2.24-2.8.57-.75 1.56-.9 2.4-.5 3.54 1.98 7.17 2.97 10.9 2.97 4.53 0 8.5-1.24 12.04-3.7.66-.43 1.5-.43 2.15 0 3.54 2.46 7.5 3.7 12.04 3.7 3.72 0 7.35-1 10.9-2.97.82-.4 1.82-.25 2.4.5.74.98 1.48 1.9 2.22 2.8.58.66.58 1.5.17 2.23-2.48 3.96-3.8 8.34-3.8 12.88zm-7.67 30.56c1.98-.33 11.64-2.3 11.64-7.76 0-2.56-.92-4.3-2.73-7.35-2.15-3.63-4.96-8.6-4.96-15.44 0-4.78 1.25-9.4 3.65-13.7-.17-.24-.33-.4-.5-.65-3.63 1.8-7.5 2.72-11.3 2.72-4.8 0-9.26-1.24-13.14-3.72-3.87 2.48-8.32 3.72-13.1 3.72-3.8 0-7.7-.9-11.32-2.72-.17.24-.33.4-.5.66 2.4 4.3 3.63 8.92 3.63 13.7 0 6.86-2.8 11.82-4.94 15.45-1.73 3.05-2.72 4.8-2.72 7.35 0 5.45 9.66 7.43 11.64 7.76 7 1.24 13.12 4.13 17.33 6.44 4.22-2.3 10.33-5.2 17.35-6.44zm-4.62-19.57c1.07.98 1.57 2.3 1.57 4.04 0 1.8-.66 3.22-2 4.37-1.22 1.1-3.04 1.58-5.27 1.58-1.73 0-3.47-.33-5.2-1.07v-2.22c2.06.66 3.8 1 5.2 1 1.4 0 2.56-.34 3.3-1 .75-.58 1.16-1.5 1.16-2.64 0-2.32-1.4-3.4-4.3-3.4-.9 0-1.82 0-2.64.1v-1.82l5.86-6.44h-8.26v-2.23h11.3v2.15l-5.7 6.1H2296.96c1.82 0 3.3.5 4.38 1.5zm-16.27-.5c1.16 1.07 1.74 2.56 1.74 4.37 0 1.82-.66 3.3-1.98 4.46-1.33 1.07-3.06 1.65-5.3 1.65-1.9 0-3.62-.33-5.27-1.07v-2.22c2.06.66 3.8 1 5.28 1 1.4 0 2.48-.34 3.3-1 .75-.66 1.08-1.57 1.08-2.73 0-1.32-.32-2.3-1.07-2.9-.66-.65-1.8-.9-3.46-.9-1.16 0-2.56.1-4.3.25v-1.8l.5-8.35h10.24v2.23h-7.84l-.4 5.7c1.06-.17 1.97-.25 2.8-.25 1.98 0 3.55.5 4.7 1.56z" stroke="#000" stroke-opacity="0" fill="#fff"/><defs><linearGradient gradientUnits="userSpaceOnUse" id="a" x1="2228.61" y1="4293" x2="2348.61" y2="4173"><stop offset="0%" stop-color="#4d27a8"/><stop offset="100%" stop-color="#a166ff"/></linearGradient></defs></g></svg>