<svg xmlns="http://www.w3.org/2000/svg" xmlns:lucid="lucid" width="120" height="120"><g transform="translate(-2690.8387880225555 -4235.6)" lucid:page-tab-id="0_0"><path d="M-500-1000h4000v6000H-500z" fill="#fff"/><path d="M2690.84 4235.6h120v120h-120v-120z" stroke="#000" stroke-opacity="0" fill="url(#a)"/><path d="M2750 4276.48c0 8.23-5 15.56-12.57 18.55v34.35c0 .48-.25.97-.58 1.37l-5.76 5.57c-.33.4-.83.56-1.32.56h-.16c-.58-.08-1.07-.32-1.4-.73l-5.5-7.58c-.17-.32-.34-.64-.34-1.04v-4.68l-4.93-4.28c-.4-.32-.66-.88-.66-1.37 0-.56.24-1.13.65-1.45l4.93-4.27v-1.45l-4.93-4.2c-.4-.4-.66-.88-.66-1.45 0-.56.24-1.05.65-1.45l4.93-4.2v-3.7c-9.12-3.55-14.38-13.15-12.4-22.82 1.55-7.5 7.3-13.54 14.7-15.3 6.25-1.55 12.66-.26 17.6 3.6 4.93 3.9 7.72 9.7 7.72 15.98zm-15.04 15.48c6.74-2.17 11.26-8.38 11.26-15.48 0-5.08-2.3-9.84-6.33-12.98-3.95-3.15-9.22-4.28-14.3-3-6 1.47-10.7 6.38-11.93 12.43-1.73 8.4 2.96 16.45 11.18 19.03.74.24 1.3.97 1.3 1.78v5.88c0 .57-.23 1.05-.64 1.46l-3.94 3.3 3.95 3.4c.42.3.66.88.66 1.44v3.14c0 .57-.24 1.05-.65 1.46l-3.94 3.38 3.95 3.3c.42.4.66.9.66 1.46v4.92l3.87 5.24 3.6-3.55v-34.83c0-.8.5-1.53 1.33-1.78zm56.8-7.58v37.5c0 1.05-.82 1.86-1.9 1.86h-48.74v-3.7h46.86v-33.8h-35.6v-3.7h37.5c1.06 0 1.88.8 1.88 1.84zm-61.73-15.16c4.1 0 7.4 3.4 7.4 7.5s-3.3 7.42-7.4 7.42c-4.1 0-7.48-3.3-7.48-7.42 0-4.1 3.37-7.5 7.48-7.5zm39.2 32.98c0 3.63-2.95 6.54-6.57 6.54s-6.5-2.9-6.5-6.53c0-3.62 2.88-6.6 6.5-6.6s6.58 2.98 6.58 6.6zm-21.53-6.6c3.62 0 6.58 2.98 6.58 6.6 0 3.63-2.96 6.54-6.58 6.54s-6.58-2.9-6.58-6.53c0-3.62 2.96-6.6 6.58-6.6zm-17.67-15.17c2.05 0 3.7-1.7 3.7-3.7 0-2.1-1.65-3.72-3.7-3.72-2.06 0-3.7 1.63-3.7 3.72 0 2.02 1.64 3.7 3.7 3.7zm11.1 33.95v-3.8h11.26v3.8zm15.04 0v-3.8h11.17v3.8zm14.96 0v-3.8h11.26v3.8zm-23.43-9.35c1.56 0 2.8-1.3 2.8-2.82 0-1.53-1.24-2.82-2.8-2.82-1.56 0-2.8 1.3-2.8 2.82 0 1.54 1.24 2.83 2.8 2.83zm12.16-2.82c0 1.54 1.32 2.83 2.8 2.83 1.56 0 2.88-1.3 2.88-2.82 0-1.53-1.32-2.82-2.88-2.82-1.48 0-2.8 1.3-2.8 2.82z" stroke="#000" stroke-opacity="0" fill="#fff"/><defs><linearGradient gradientUnits="userSpaceOnUse" id="a" x1="2690.84" y1="4355.6" x2="2810.84" y2="4235.6"><stop offset="0%" stop-color="#bd0816"/><stop offset="100%" stop-color="#ff5252"/></linearGradient></defs></g></svg>