<svg xmlns="http://www.w3.org/2000/svg" xmlns:lucid="lucid" width="120" height="120"><g transform="translate(-1784.063788022555 -4160)" lucid:page-tab-id="0_0"><path d="M-500-1000h4000v5500H-500z" fill="#fff"/><path d="M1784.06 4160h120v120h-120v-120z" stroke="#000" stroke-opacity="0" fill="url(#a)"/><path d="M1862.9 4212.33v39c0 5.6-9.76 8.15-19.5 8.15-11.06 0-18.16-3.23-18.16-8.15v-38.7-.3c0-4.93 7.1-8.15 18.16-8.15 9.74 0 19.5 2.53 19.5 8.15zm20.54-18.54c-1.56 0-2.8 1.3-2.8 2.84 0 1.53 1.24 2.84 2.8 2.84 1.08 0 1.9.85 1.9 1.85v30.07c0 1-.82 1.85-1.9 1.85h-15.02v-3.77h7.5v-3.77h-7.5v-3.68h9.4c1.08 0 1.9.85 1.9 1.85v5.6h1.9v-26.53c-2.72-.84-4.7-3.3-4.7-6.3s1.98-5.47 4.7-6.3v-4h-75.12v4c2.72.84 4.7 3.3 4.7 6.3s-1.98 5.46-4.7 6.3v26.54h1.9v-5.6c0-1 .82-1.86 1.9-1.86h9.4v3.7h-7.5v3.76h7.5v3.77h-15.02c-1.07 0-1.9-.85-1.9-1.85v-30.07c0-1 .83-1.85 1.9-1.85 1.57 0 2.8-1.3 2.8-2.84 0-1.54-1.23-2.85-2.8-2.85-1.07 0-1.9-.78-1.9-1.86v-7.53c0-1 .83-1.84 1.9-1.84h78.76c1.08 0 1.9.85 1.9 1.85v7.54c0 1.08-.82 1.85-1.9 1.85zm-24.27 32.45v-8.77c-3.7 2.08-9.74 3.08-15.77 3.08-6.27 0-11.3-1.08-14.45-2.85v8.55c0 1.77 4.63 4.4 14.45 4.4 10.4 0 15.77-2.86 15.77-4.4zm0 12.6v-7.45c-3.7 2.08-9.74 3-15.77 3-6.27 0-11.3-1-14.45-2.84v7.3c0 1.78 4.63 4.47 14.45 4.47 10.4 0 15.77-2.93 15.77-4.47zm0 12.48v-7.3c-3.7 2.07-9.74 3-15.77 3-6.27 0-11.3-1-14.45-2.86v7.16c0 1.84 5.04 4.38 14.45 4.38 10.4 0 15.77-2.84 15.77-4.37zm-30.22-39c0 1.84 5.04 4.46 14.45 4.46 10.4 0 15.77-2.93 15.77-4.47 0-1.54-5.36-4.4-15.77-4.4-9.4 0-14.45 2.55-14.45 4.4zm41.37 2.15v-20.7h-3.72v9.47h-3.8v-11.3c0-1 .83-1.85 1.9-1.85h7.52c1 0 1.9.84 1.9 1.84v24.4c0 1.06-.9 1.9-1.9 1.9h-3.8v-3.76zm-45-11.23h-3.8v-9.46h-3.7v20.68h1.9v3.77h-3.8c-1 0-1.9-.85-1.9-1.92v-24.4c0-1 .9-1.83 1.9-1.83h7.5c1.08 0 1.9.84 1.9 1.84zm33.77-1.92h-3.8v-7.54h-5.62v5.68h-3.72v-7.54c0-1 .83-1.84 1.82-1.84h9.4c1.08 0 1.9.84 1.9 1.84zm-20.65-1.85v-5.7h-5.6v7.55h-3.8v-9.4c0-1 .8-1.83 1.9-1.83h9.4c1 0 1.82.84 1.82 1.84v7.54z" stroke="#000" stroke-opacity="0" fill="#fff"/><defs><linearGradient gradientUnits="userSpaceOnUse" id="a" x1="1784.06" y1="4280" x2="1904.06" y2="4160"><stop offset="0%" stop-color="#2e27ad"/><stop offset="100%" stop-color="#527fff"/></linearGradient></defs></g></svg>