<svg xmlns="http://www.w3.org/2000/svg" xmlns:lucid="lucid" width="120" height="120"><g transform="translate(-1224.063788022555 -4160)" lucid:page-tab-id="0_0"><path d="M-500-1000h4000v5500H-500z" fill="#fff"/><path d="M1224.06 4160h120v120h-120v-120z" stroke="#000" stroke-opacity="0" fill="url(#a)"/><path d="M1317.2 4198.3c0 .97-.52 1.85-1.32 2.34L1284 4219.1v39.36c0 .97-.5 1.85-1.3 2.34-.44.24-.95.4-1.4.4-.5 0-.94-.16-1.38-.4l-30.1-17.42c-.88-.57-1.4-1.45-1.4-2.42v-38.4c0-.95.5-1.84 1.4-2.32l33.17-19.2c.8-.56 1.82-.56 2.7 0l30.03 14.84c.95.56 1.46 1.45 1.46 2.42zm-35.53 17.82l30.63-17.74-27.92-13.87-32.23 18.64v37.25l28.14 16.28v-38.22c0-.97.5-1.86 1.38-2.34zm38.44-9.6c.9.5 1.4 1.38 1.4 2.34v32.26c0 .97-.5 1.86-1.38 2.34l-26.24 17.42c-.5.24-1.02.4-1.54.4-.43 0-.94-.16-1.3-.32-.9-.5-1.4-1.45-1.4-2.42v-15.73c0-.95.5-1.84 1.24-2.32l11.9-8.96.02-15.16c0-1.45 1.16-2.1 1.6-2.34l13-7.5c.9-.48 1.9-.48 2.7 0zm-2.32 34.04v-29.92l-11.26 6.53v15.24c0 .66-.3 1.14-.73 1.54l-12.43 9.36v13.38z" stroke="#000" stroke-opacity="0" fill="#fff"/><defs><linearGradient gradientUnits="userSpaceOnUse" id="a" x1="1224.06" y1="4280" x2="1344.06" y2="4160"><stop offset="0%" stop-color="#c8511b"/><stop offset="100%" stop-color="#f90"/></linearGradient></defs></g></svg>