<svg width="37" height="43" viewBox="0 0 37 43" fill="none" xmlns="http://www.w3.org/2000/svg">
<path fill-rule="evenodd" clip-rule="evenodd" d="M20.4051 6.85L29.9954 12.21L21.1339 0C20.4305 0.971454 19.9921 2.11866 19.864 3.32296C19.7358 4.52726 19.9227 5.74492 20.4051 6.85Z" fill="url(#paint0_linear_302_71)"/>
<path fill-rule="evenodd" clip-rule="evenodd" d="M16.0716 26.73C16.5031 26.73 16.925 26.8615 17.2841 27.1078C17.6432 27.3542 17.9234 27.7044 18.0895 28.1144C18.2555 28.5244 18.2999 28.9757 18.2171 29.4116C18.1343 29.8475 17.928 30.2485 17.6242 30.5639C17.3204 30.8794 16.9327 31.0952 16.5099 31.1843C16.0871 31.2733 15.6481 31.2316 15.2483 31.0644C14.8485 30.8972 14.5057 30.6119 14.2632 30.2445C14.0206 29.8771 13.8892 29.4441 13.8853 29C13.8828 28.7028 13.9374 28.4081 14.0461 28.1328C14.1549 27.8575 14.3155 27.6071 14.5188 27.396C14.722 27.185 14.9639 27.0175 15.2304 26.9031C15.4969 26.7888 15.7828 26.73 16.0716 26.73Z" fill="url(#paint1_linear_302_71)"/>
<path fill-rule="evenodd" clip-rule="evenodd" d="M9.39627 1.79004L36.253 16.79C36.4726 16.9 36.6577 17.0713 36.7872 17.2844C36.9168 17.4974 36.9854 17.7437 36.9854 17.995C36.9854 18.2464 36.9168 18.4926 36.7872 18.7057C36.6577 18.9188 36.4726 19.0901 36.253 19.2C34.2217 20.458 31.9972 21.3507 29.6748 21.84L24.0878 33.64C24.0878 33.64 22.3193 37.78 17.4513 36.19C19.4918 34.09 21.9598 32.19 21.9598 28.96C21.9598 27.3502 21.3384 25.8062 20.2324 24.6679C19.1263 23.5296 17.6261 22.89 16.0619 22.89C14.4976 22.89 12.9974 23.5296 11.8914 24.6679C10.7853 25.8062 10.1639 27.3502 10.1639 28.96C10.1639 33.18 14.206 34.96 16.4505 37.89C16.9409 38.6045 17.1768 39.4711 17.1184 40.3438C17.06 41.2164 16.7108 42.0416 16.1299 42.68C13.3412 39.84 7.9485 35.05 5.73312 31.91C4.52192 30.3269 3.85551 28.3749 3.83838 26.36C3.94478 24.2161 4.69016 22.1579 5.97317 20.4654C7.25618 18.7728 9.01456 17.5279 11.0092 16.9C12.2327 16.5333 13.5061 16.3745 14.7793 16.43C16.5545 16.5685 18.2789 17.1043 19.8319 18C22.2125 19.44 23.3687 19.06 25.0108 17.64C25.9825 16.82 27.0416 14.15 25.3995 13.53C24.8626 13.3498 24.3138 13.2094 23.7574 13.11C20.7064 12.5 15.372 11.92 13.4092 10.77C10.2902 9.00004 8.19142 5.35004 9.39627 1.79004Z" fill="url(#paint2_linear_302_71)"/>
<path fill-rule="evenodd" clip-rule="evenodd" d="M21.9106 28.9898C23.1543 22.2598 16.5179 15.8398 11.4264 16.7998L11.7665 16.7198C11.4944 16.7798 11.2321 16.8498 10.9794 16.9298C8.98478 17.5577 7.22639 18.8025 5.94338 20.4951C4.66037 22.1877 3.91499 24.2459 3.80859 26.3898C3.83956 28.4106 4.52328 30.3632 5.75191 31.9398C7.9673 35.0798 13.36 39.8698 16.1487 42.7098C16.7296 42.0713 17.0788 41.2462 17.1372 40.3735C17.1956 39.5009 16.9597 38.6342 16.4693 37.9198C14.1762 34.9998 10.1341 33.2098 10.1341 28.9998C10.1341 27.3899 10.7555 25.846 11.8616 24.7077C12.9677 23.5693 14.4678 22.9298 16.0321 22.9298C17.5963 22.9298 19.0965 23.5693 20.2026 24.7077C21.3087 25.846 21.9301 27.3899 21.9301 28.9998L21.9106 28.9898Z" fill="url(#paint3_linear_302_71)"/>
<path fill-rule="evenodd" clip-rule="evenodd" d="M9.39557 1.79004L29.8004 13.23L30.3834 13.56C30.8693 13.95 31.3551 14.73 30.7235 16.17C29.7518 18.32 25.8652 20.4 21.3859 18.77C22.785 19.19 23.7373 18.71 24.9616 17.65C25.9332 16.83 26.9923 14.16 25.3502 13.54C24.8133 13.3598 24.2646 13.2194 23.7081 13.12C20.6571 12.51 15.3227 11.93 13.3599 10.78C10.2895 9.00004 8.19071 5.35004 9.39557 1.79004Z" fill="url(#paint4_linear_302_71)"/>
<path fill-rule="evenodd" clip-rule="evenodd" d="M9.396 1.79004C11.5045 9.79004 24.3401 10.45 30.7725 13.79L9.396 1.79004Z" fill="url(#paint5_linear_302_71)"/>
<path fill-rule="evenodd" clip-rule="evenodd" d="M16.4212 37.92C14.1767 35 10.1346 33.21 10.1346 29C10.1401 27.5241 10.668 26.1008 11.6194 24.9964C12.5709 23.8921 13.8807 23.1824 15.3038 23C13.0513 23.0079 10.8932 23.9323 9.30045 25.5716C7.70767 27.2108 6.80946 29.4318 6.80177 31.75C6.80071 32.3413 6.85932 32.9311 6.97667 33.51C8.83254 35.67 11.5143 38.22 13.7783 40.38C14.6625 41.23 15.4787 42.03 16.1491 42.71C16.707 42.0448 17.047 41.2155 17.1208 40.34C17.1739 39.4735 16.9259 38.6157 16.4212 37.92Z" fill="url(#paint6_linear_302_71)"/>
<path fill-rule="evenodd" clip-rule="evenodd" d="M21.8813 29.7101C21.912 29.4714 21.9282 29.231 21.9299 28.9901C23.1542 22.2601 16.5178 15.8401 11.4263 16.8001C12.5134 16.5298 13.6317 16.4153 14.7493 16.4601C21.4247 16.7401 23.2902 24.0801 21.8813 29.7101Z" fill="url(#paint7_linear_302_71)"/>
<path fill-rule="evenodd" clip-rule="evenodd" d="M2.19595 14.8398C2.77925 14.8425 3.33777 15.0828 3.74932 15.5082C4.16086 15.9337 4.39191 16.5095 4.3919 17.1098V19.3698H2.19595C1.61355 19.3698 1.055 19.1317 0.643179 18.7079C0.231359 18.2841 1.03986e-10 17.7092 1.03986e-10 17.1098C-5.65984e-06 16.5095 0.231042 15.9337 0.642586 15.5082C1.05413 15.0828 1.61266 14.8425 2.19595 14.8398Z" fill="url(#paint8_linear_302_71)"/>
<defs>
<linearGradient id="paint0_linear_302_71" x1="16.3727" y1="6.11" x2="35.4561" y2="6.11" gradientUnits="userSpaceOnUse">
<stop stop-color="#FBAA19"/>
<stop offset="1" stop-color="#EF3E23"/>
</linearGradient>
<linearGradient id="paint1_linear_302_71" x1="15.3234" y1="31.08" x2="16.8973" y2="26.8992" gradientUnits="userSpaceOnUse">
<stop stop-color="#F78D1E"/>
<stop offset="1" stop-color="#F37121"/>
</linearGradient>
<linearGradient id="paint2_linear_302_71" x1="3.45943" y1="32.53" x2="27.4273" y2="7.56754" gradientUnits="userSpaceOnUse">
<stop stop-color="#FEBE2D"/>
<stop offset="1" stop-color="#F04E23"/>
</linearGradient>
<linearGradient id="paint3_linear_302_71" x1="19.8896" y1="17.5398" x2="6.49861" y2="37.568" gradientUnits="userSpaceOnUse">
<stop stop-color="#EA4425"/>
<stop offset="1" stop-color="#FDBB27"/>
</linearGradient>
<linearGradient id="paint4_linear_302_71" x1="0.232817" y1="10.57" x2="40.8482" y2="10.57" gradientUnits="userSpaceOnUse">
<stop stop-color="#F47920"/>
<stop offset="1" stop-color="#E93825"/>
</linearGradient>
<linearGradient id="paint5_linear_302_71" x1="-21.221" y1="7.78004" x2="61.4187" y2="7.78004" gradientUnits="userSpaceOnUse">
<stop stop-color="#FDCA0B"/>
<stop offset="1" stop-color="#F5841F"/>
</linearGradient>
<linearGradient id="paint6_linear_302_71" x1="8.29813" y1="18.07" x2="17.3655" y2="48.8019" gradientUnits="userSpaceOnUse">
<stop stop-color="#E73C25"/>
<stop offset="1" stop-color="#FAA21B"/>
</linearGradient>
<linearGradient id="paint7_linear_302_71" x1="-49.9146" y1="23.0801" x2="72.7575" y2="23.0801" gradientUnits="userSpaceOnUse">
<stop stop-color="#FDBA12"/>
<stop offset="1" stop-color="#F7921E"/>
</linearGradient>
<linearGradient id="paint8_linear_302_71" x1="0.0777328" y1="16.7198" x2="4.68155" y2="17.5143" gradientUnits="userSpaceOnUse">
<stop stop-color="#FEBE2D"/>
<stop offset="1" stop-color="#F04E23"/>
</linearGradient>
</defs>
</svg>
