<svg width="99" height="103" viewBox="0 0 99 103" fill="none" xmlns="http://www.w3.org/2000/svg">
<path d="M27.75 90.64C24.1518 88.572 20.8685 85.9992 18 83C17.1681 84.0435 16.1511 84.9248 15 85.6C14.3642 85.959 13.6942 86.2538 13 86.48C20.5374 94.7108 30.6374 100.15 41.6579 101.913C52.6784 103.676 63.9711 101.659 73.7 96.19C74.1654 95.9228 74.552 95.5375 74.8209 95.0731C75.0897 94.6087 75.2313 94.0816 75.2313 93.545C75.2313 93.0084 75.0897 92.4813 74.8209 92.0169C74.552 91.5525 74.1654 91.1672 73.7 90.9C73.2483 90.6291 72.7333 90.4818 72.2067 90.473C71.6801 90.4642 71.1604 90.5943 70.7 90.85C64.1411 94.5538 56.7295 96.4825 49.1971 96.4457C41.6648 96.4089 34.2724 94.4077 27.75 90.64Z" fill="#E6E7E8"/>
<path d="M27.74 15.6801C31.3393 13.6042 35.2193 12.0583 39.26 11.0901C38.7579 9.81631 38.5001 8.45935 38.5 7.09014C38.5019 6.35141 38.5756 5.61461 38.72 4.89014C27.8267 7.30898 18.0721 13.3418 11.0422 22.0075C4.01229 30.6732 0.120625 41.4622 0 52.6201C0.00175754 53.1564 0.144429 53.6828 0.413717 54.1466C0.683005 54.6104 1.06945 54.9953 1.53434 55.2627C1.99922 55.53 2.52621 55.6706 3.0625 55.6701C3.5988 55.6697 4.12556 55.5283 4.59 55.2601C5.0461 55.0039 5.42726 54.6328 5.69565 54.1837C5.96404 53.7347 6.11033 53.2232 6.12 52.7001C6.20038 45.1837 8.2361 37.8177 12.0269 31.3267C15.8177 24.8357 21.233 19.4433 27.74 15.6801Z" fill="#E6E7E8"/>
<path d="M92.6502 53.1599C92.6488 57.3142 92.0493 61.4466 90.8702 65.4299C92.2149 65.627 93.5106 66.0748 94.6902 66.7499C95.3231 67.1121 95.9222 67.5305 96.4802 67.9999C99.8236 57.3562 99.4695 45.8947 95.4755 35.4776C91.4815 25.0606 84.0823 16.3002 74.4802 10.6199C74.0146 10.376 73.494 10.2562 72.9686 10.2719C72.4433 10.2876 71.9308 10.4384 71.4806 10.7097C71.0305 10.981 70.6578 11.3637 70.3985 11.8209C70.1392 12.2781 70.002 12.7943 70.0002 13.3199C69.9947 13.842 70.1256 14.3565 70.3799 14.8125C70.6342 15.2685 71.0031 15.6502 71.4502 15.9199C77.9117 19.7538 83.2641 25.2034 86.9812 31.7328C90.6982 38.2622 92.6519 45.6466 92.6502 53.1599Z" fill="#E6E7E8"/>
<path d="M49.3902 32.5802C53.461 32.5782 57.4409 33.7836 60.8266 36.0437C64.2122 38.3039 66.8516 41.5173 68.4108 45.2777C69.97 49.038 70.3789 53.1763 69.586 57.169C68.793 61.1618 66.8338 64.8298 63.956 67.7089C61.0782 70.5881 57.4112 72.5491 53.4188 73.344C49.4264 74.1389 45.288 73.732 41.5269 72.1746C37.7658 70.6173 34.5511 67.9795 32.2893 64.5949C30.0275 61.2103 28.8202 57.231 28.8202 53.1602C28.8255 47.7054 30.9941 42.4754 34.8503 38.6173C38.7064 34.7593 43.9354 32.5882 49.3902 32.5802ZM49.3902 26.4702C44.1114 26.4702 38.9512 28.0356 34.562 30.9683C30.1729 33.901 26.752 38.0694 24.7319 42.9464C22.7118 47.8234 22.1832 53.1898 23.213 58.3672C24.2429 63.5445 26.7849 68.3002 30.5175 72.0329C34.2502 75.7656 39.0059 78.3075 44.1832 79.3374C49.3606 80.3672 54.7271 79.8387 59.604 77.8186C64.481 75.7985 68.6494 72.3775 71.5821 67.9884C74.5149 63.5992 76.0802 58.439 76.0802 53.1602C76.0815 49.6549 75.3921 46.1836 74.0512 42.9448C72.7104 39.7061 70.7445 36.7633 68.2658 34.2846C65.7872 31.8059 62.8444 29.84 59.6056 28.4992C56.3668 27.1584 52.8956 26.4689 49.3902 26.4702Z" fill="#E6E7E8"/>
<path d="M49.3798 14.24C53.312 14.24 56.4998 11.0523 56.4998 7.12C56.4998 3.18773 53.312 0 49.3798 0C45.4475 0 42.2598 3.18773 42.2598 7.12C42.2598 11.0523 45.4475 14.24 49.3798 14.24Z" fill="#F58320"/>
<path d="M9.51014 83.2898C13.4424 83.2898 16.6301 80.1021 16.6301 76.1698C16.6301 72.2375 13.4424 69.0498 9.51014 69.0498C5.57787 69.0498 2.39014 72.2375 2.39014 76.1698C2.39014 80.1021 5.57787 83.2898 9.51014 83.2898Z" fill="#F58320"/>
<path d="M89.2499 83.2898C93.1822 83.2898 96.3699 80.1021 96.3699 76.1698C96.3699 72.2375 93.1822 69.0498 89.2499 69.0498C85.3176 69.0498 82.1299 72.2375 82.1299 76.1698C82.1299 80.1021 85.3176 83.2898 89.2499 83.2898Z" fill="#F58320"/>
<path d="M55.2902 48.2899C55.2917 47.2515 55.019 46.231 54.4997 45.3317C53.9805 44.4324 53.2331 43.6861 52.333 43.1681C51.433 42.6502 50.4121 42.3789 49.3737 42.3819C48.3353 42.3848 47.316 42.6617 46.4188 43.1847C45.5217 43.7077 44.7785 44.4582 44.2643 45.3604C43.7501 46.2626 43.4831 47.2846 43.4904 48.323C43.4976 49.3614 43.7788 50.3795 44.3055 51.2745C44.8323 52.1694 45.5859 52.9095 46.4902 53.4199L44.6302 62.8499C44.6002 62.9969 44.6036 63.1487 44.6402 63.2942C44.6768 63.4397 44.7457 63.5751 44.8418 63.6903C44.9378 63.8056 45.0585 63.8977 45.195 63.96C45.3315 64.0222 45.4802 64.053 45.6302 64.0499H53.2002C53.3502 64.053 53.499 64.0222 53.6354 63.96C53.7719 63.8977 53.8927 63.8056 53.9887 63.6903C54.0847 63.5751 54.1536 63.4397 54.1902 63.2942C54.2268 63.1487 54.2303 62.9969 54.2002 62.8499L52.3302 53.4199C53.2327 52.9024 53.982 52.1551 54.5019 51.254C55.0219 50.353 55.2938 49.3302 55.2902 48.2899Z" fill="#F58320"/>
</svg>
