<svg width="320" height="321" viewBox="0 0 320 321" fill="none" xmlns="http://www.w3.org/2000/svg">
<path d="M151.126 0C122.764 0 96.2121 7.91515 73.5145 21.5366C67.0423 16.2744 58.9098 13.3453 50.4479 13.3431C50.4468 13.3431 50.4456 13.3431 50.4444 13.3431C30.2908 13.3438 13.7661 29.8708 13.7671 50.0245C13.7671 50.028 13.7671 50.0315 13.7671 50.035C13.777 58.4496 16.6937 66.5177 21.8702 72.9616C8.04046 95.7912 0.000600037 122.541 0.000600037 151.13C-0.0129693 152.29 0.20373 153.441 0.638144 154.516C1.07256 155.592 1.71605 156.57 2.53133 157.395C3.34662 158.22 4.31749 158.875 5.38769 159.322C6.45789 159.769 7.60616 159.999 8.76595 159.999C9.92574 159.999 11.074 159.769 12.1442 159.322C13.2144 158.875 14.1853 158.22 15.0006 157.395C15.8158 156.57 16.4593 155.592 16.8938 154.516C17.3282 153.441 17.5449 152.29 17.5313 151.13C17.5313 126.429 24.2505 103.383 35.909 83.5574C40.4752 85.542 45.3815 86.707 50.4277 86.7147C50.4319 86.7147 50.436 86.7147 50.4401 86.7147C70.5948 86.7153 87.1225 70.188 87.1215 50.0334C87.1215 50.032 87.1215 50.0307 87.1215 50.0293C87.1199 45.03 85.9828 40.1667 84.0388 35.6326C103.755 24.1488 126.623 17.5379 151.123 17.5379C152.282 17.5515 153.433 17.3348 154.509 16.9003C155.584 16.4659 156.562 15.8225 157.387 15.0072C158.212 14.1919 158.867 13.221 159.314 12.1508C159.761 11.0806 159.991 9.93234 159.991 8.77255C159.991 7.61276 159.761 6.46452 159.314 5.39432C158.867 4.32411 158.212 3.3532 157.387 2.53792C156.562 1.72264 155.584 1.07918 154.509 0.644764C153.433 0.210351 152.282 -0.00636735 151.123 0.00720202L151.126 0ZM50.4379 30.8795C56.3507 30.8815 61.6287 33.3915 65.2737 37.9563C65.3334 38.0287 65.3943 38.1003 65.4563 38.1708C68.1277 41.5505 69.5888 45.7237 69.5903 50.0336C69.5888 60.7104 61.1224 69.1772 50.4466 69.1812C46.0767 69.1732 41.8457 67.6724 38.4468 64.9267C38.4427 64.9237 38.4386 64.9207 38.4344 64.9177C33.9205 61.2847 31.2987 55.8199 31.2903 50.025C31.2928 39.3481 39.7602 30.8815 50.4379 30.8795Z" fill="#305680"/>
<path fill-rule="evenodd" clip-rule="evenodd" d="M66.9897 102.828C65.4977 104.387 64.6235 106.539 64.7322 108.9C64.8284 110.944 65.6454 112.92 67.0693 114.417C73.8743 121.273 87.292 134.64 87.292 134.64L99.1358 122.81C99.1358 122.81 86.163 109.849 78.9601 102.639C77.3561 101.007 75.2104 100.325 72.9482 100.315C70.59 100.304 68.481 101.269 66.9891 102.827L66.9897 102.828ZM99.1362 122.811L62.4978 159.449C58.5228 163.425 58.5228 169.87 62.4978 173.846L80.6535 192.002L112.406 223.754L142.883 254.232C146.859 258.208 153.305 258.208 157.281 254.232L182.072 229.441L219.985 191.528L256.623 154.889C260.599 150.913 260.598 144.468 256.623 140.492L237.993 121.862L206.244 90.1026L176.234 60.1031C172.258 56.1281 165.813 56.1281 161.837 60.1031L137.048 84.8927L99.1385 122.802L99.1362 122.811ZM137.047 84.9017C137.047 84.9017 124.074 71.9409 116.871 64.731C115.267 63.0985 113.121 62.417 110.859 62.4068C106.142 62.3842 102.425 66.2683 102.642 70.99C102.738 73.0347 103.555 75.0103 104.979 76.5076C111.784 83.3634 125.202 96.7303 125.202 96.7303L137.046 84.9005L137.047 84.9017ZM206.238 90.1148C206.238 90.1148 219.199 77.142 226.409 69.9391C228.041 68.3351 228.723 66.1894 228.733 63.9272C228.756 59.2107 224.872 55.4933 220.15 55.7105C218.105 55.8067 216.13 56.6237 214.632 58.0476C207.777 64.8526 194.41 78.2703 194.41 78.2703L206.24 90.1141L206.238 90.1148ZM237.991 121.867C237.991 121.867 250.952 108.894 258.161 101.692C259.794 100.088 260.475 97.9418 260.486 95.6797C260.508 90.9632 256.624 87.2457 251.902 87.4629C249.858 87.5591 247.882 88.3761 246.385 89.8001C239.529 96.6051 226.162 110.023 226.162 110.023L237.992 121.867L237.991 121.867ZM219.982 191.533C219.982 191.533 232.955 204.494 240.16 211.702C241.764 213.334 243.909 214.016 246.172 214.026C250.888 214.048 254.606 210.164 254.388 205.443L254.386 205.445C254.29 203.4 253.472 201.423 252.048 199.926C245.243 193.07 231.827 179.705 231.827 179.705L219.983 191.534L219.982 191.533ZM182.069 229.446C182.069 229.446 195.042 242.407 202.246 249.615C203.85 251.247 205.996 251.929 208.258 251.939C212.975 251.962 216.692 248.078 216.475 243.356H216.473C216.377 241.311 215.56 239.335 214.136 237.838C207.331 230.983 193.913 217.616 193.913 217.616L182.069 229.445L182.069 229.446ZM112.403 223.759C112.403 223.759 99.4422 236.732 92.2343 243.937C90.6019 245.541 89.9203 247.687 89.91 249.949C89.8875 254.665 93.7715 258.383 98.4933 258.166H98.4914C100.536 258.07 102.512 257.252 104.009 255.828C110.865 249.024 124.232 235.606 124.232 235.606L112.412 223.766L112.403 223.759ZM80.6605 192.02C80.6605 192.02 67.6997 204.993 60.4918 212.198C58.8595 213.802 58.1779 215.947 58.1676 218.209C58.1451 222.926 62.029 226.643 66.7508 226.426H66.7489C68.7936 226.33 70.7693 225.513 72.2665 224.089C79.1225 217.284 92.4892 203.866 92.4892 203.866L80.6604 192.017L80.6605 192.02ZM167.896 101.467C169.575 99.7611 171.863 98.8077 174.193 98.8416C175.856 98.8653 177.446 99.3917 178.755 100.351L195.254 112.451C198.455 114.748 199.399 119.11 197.485 122.763C195.571 126.416 191.362 128.287 187.534 127.185L193.658 151.133C194.771 155.485 192.094 160.101 187.675 161.45L143.034 175.081L151.279 206.963C152.452 211.333 149.778 216.007 145.325 217.37C140.872 218.732 136.349 216.259 135.257 211.865L124.975 172.097C123.849 167.741 126.525 163.112 130.951 161.759L175.611 148.122L171.489 132.005C168.726 135.069 164.256 135.813 160.904 133.766C157.551 131.719 156.289 127.477 157.918 123.719L166.034 104.266C166.468 103.228 167.102 102.277 167.897 101.468L167.896 101.467Z" fill="#305680"/>
<path d="M168.866 320.035C197.228 320.035 223.78 312.119 246.479 298.497C252.951 303.759 261.083 306.688 269.545 306.691C269.547 306.691 269.548 306.691 269.549 306.691C289.704 306.69 306.229 290.163 306.228 270.009C306.228 270.006 306.228 270.002 306.228 269.998C306.218 261.584 303.301 253.515 298.124 247.072C311.949 224.252 319.99 197.501 319.99 168.911C320.005 167.751 319.789 166.599 319.355 165.523C318.921 164.446 318.278 163.467 317.462 162.641C316.647 161.815 315.676 161.16 314.605 160.712C313.534 160.265 312.385 160.034 311.225 160.034C310.064 160.034 308.915 160.265 307.844 160.712C306.774 161.16 305.802 161.815 304.987 162.641C304.172 163.467 303.528 164.446 303.094 165.523C302.66 166.599 302.445 167.751 302.459 168.911C302.459 193.614 295.74 216.659 284.082 236.485C279.515 234.5 274.609 233.335 269.563 233.328C269.559 233.328 269.555 233.328 269.55 233.328C249.396 233.327 232.868 249.854 232.869 270.009C232.871 275.008 234.008 279.872 235.952 284.406C216.235 295.89 193.367 302.5 168.867 302.5C167.707 302.486 166.555 302.702 165.479 303.136C164.402 303.569 163.423 304.213 162.597 305.028C161.771 305.844 161.116 306.815 160.668 307.886C160.221 308.956 159.99 310.105 159.99 311.266C159.99 312.426 160.221 313.575 160.668 314.646C161.116 315.717 161.771 316.688 162.597 317.503C163.423 318.319 164.402 318.962 165.479 319.396C166.555 319.83 167.707 320.046 168.867 320.031L168.866 320.035ZM269.554 289.16C263.641 289.16 258.363 286.648 254.718 282.083C254.659 282.011 254.598 281.939 254.536 281.869C251.864 278.489 250.403 274.316 250.402 270.006C250.404 259.329 258.87 250.862 269.546 250.858C273.915 250.866 278.147 252.367 281.545 255.113C281.549 255.116 281.554 255.119 281.558 255.122C286.072 258.755 288.693 264.22 288.702 270.015C288.699 280.691 280.232 289.159 269.554 289.16Z" fill="#305680"/>
</svg>
